<svg id="Capa_1" data-name="Capa 1" xmlns="http://www.w3.org/2000/svg" viewBox="0 0 651.97 595.28"><defs><style>.cls-1{fill:#161616;}.cls-2{fill:#4cae7e;}</style></defs><rect class="cls-1" x="-1.55" y="-2.29" width="660" height="605"/><path class="cls-2" d="M397.84,201.11h-145a25.62,25.62,0,0,0-25.61,25.61v145a25.61,25.61,0,0,0,25.61,25.6h145a25.6,25.6,0,0,0,25.6-25.6v-145A25.61,25.61,0,0,0,397.84,201.11Zm-7.78,161.78c-4.39,5.13-13.91,3.75-19.06,2.51a203.67,203.67,0,0,1-21.25-6.14c-12-4.32-28.29-11.86-38-20.08a2.2,2.2,0,0,0-3.61,1.8c.33,7.26,6.47,20.63,3.2,23.9-3.66,3.67-15.57,2.64-20.93,2.64-10.77,0-21.55-.88-32.32-.88V307.77c0-3.83-.05-7.67,0-11.5,0-1.76,0-2.48.17-2.75a2,2,0,0,1-.17-.79V231.06c14.33,0,28.66.21,43,.18,0,0,8.68-.42,12.33.8,5.07,1.69,1.1,17-.05,21.2a126.27,126.27,0,0,1-4.31,13c-.66,1.68-3.47,6.26-2.43,8.08,2.1,3.66,11.52-1.05,19-6.37,10.23-7.3,17.08-18.82,20.65-30.87.93-3.12,1-5.6,4.13-6,3.5-.44,13.13-.14,16.46-.12,7.94.05,15.87.11,23.81.12.94,0,1.71,1.29,1.71,2.23v13.35c0,11.69-.9,18.74-7.33,28.77-20.55,32-68.45,29.25-68.45,29.25-4.89-.2-9.81-.42-14.66-1.05a112.43,112.43,0,0,1-12.48-2,.08.08,0,0,0-.06.15c4.92,2.46,42.1,19.92,99.77,16.34a2.41,2.41,0,0,1,2.54,2.21c.11,1.47.21,2.94.31,4.41.5,7.2.51,13.41.51,20.74C392.48,350.66,393.43,358.93,390.06,362.89Z"/></svg>